<svg width="769" height="982" viewBox="0 0 769 982" fill="none" xmlns="http://www.w3.org/2000/svg">
<path fill-rule="evenodd" clip-rule="evenodd" d="M13.6618 193.596C5.14145 199.129 0 208.598 0 218.757V669.438C0 679.597 5.14144 689.066 13.6618 694.599L28.3382 704.129C36.8585 709.661 42 719.13 42 729.289V794.217C42 804.376 47.1414 813.845 55.6618 819.378L115.338 858.129C123.859 863.661 129 873.13 129 883.289V952C129 968.569 142.431 982 159 982H772C788.569 982 802 968.569 802 952V30C802 13.4315 788.569 0 772 0H157C140.431 0 127 13.4315 127 30V103.711C127 113.87 121.859 123.339 113.338 128.871L13.6618 193.596Z" fill="#1D1D1D"/>
</svg>
