<svg width="32" height="32" viewBox="0 0 32 32" fill="none" xmlns="http://www.w3.org/2000/svg">
<circle cx="16" cy="16" r="16" fill="#1D1D1D"/>
<path d="M14.3462 23H16.6538M8 14.4544C8.00062 13.3883 8.26254 12.3377 8.76412 11.3893C9.2657 10.4409 9.99254 9.62188 10.8846 9M23 14.4544C22.9994 13.3883 22.7375 12.3377 22.2359 11.3893C21.7343 10.4409 21.0075 9.62188 20.1154 9M20.1154 14.6C20.1154 13.4118 19.6291 12.2723 18.7636 11.4322C17.898 10.592 16.7241 10.12 15.5 10.12C14.2759 10.12 13.102 10.592 12.2364 11.4322C11.3709 12.2723 10.8846 13.4118 10.8846 14.6V18.52C10.8846 18.9656 10.7023 19.3929 10.3777 19.7079C10.0531 20.023 9.61287 20.2 9.15385 20.2H21.8462C21.3871 20.2 20.9469 20.023 20.6223 19.7079C20.2977 19.3929 20.1154 18.9656 20.1154 18.52V14.6Z" stroke="#ACE238" stroke-width="1.5" stroke-linecap="round" stroke-linejoin="round"/>
</svg>
