<svg width="124" height="25" viewBox="0 0 124 25" fill="none" xmlns="http://www.w3.org/2000/svg">
<path d="M0 24.6827V1.49112H3.84546V24.6827H0Z" fill="#1D1D1D"/>
<path d="M18.8908 6.78934C20.8883 6.78934 22.4425 7.30224 23.5534 8.32805C24.675 9.34327 25.2358 10.9772 25.2358 13.2297V24.6827H21.4705V13.9277C21.4705 12.5635 21.1874 11.5429 20.6213 10.8661C20.0551 10.1787 19.1792 9.83502 17.9935 9.83502C16.2738 9.83502 15.0774 10.3585 14.4044 11.4055C13.7422 12.4524 13.411 13.97 13.411 15.9581V24.6827H9.64569V7.12246H12.5779L13.1066 9.5019H13.3149C13.6994 8.88854 14.1748 8.38621 14.7409 7.99492C15.3177 7.59306 15.9586 7.29167 16.6637 7.09074C17.3793 6.88981 18.1217 6.78934 18.8908 6.78934Z" fill="#1D1D1D"/>
<path d="M42.4282 19.67C42.4282 20.8228 42.1451 21.7957 41.579 22.5888C41.0129 23.382 40.185 23.9848 39.0955 24.3972C38.0166 24.7991 36.6921 25 35.1218 25C33.8828 25 32.8146 24.9101 31.9173 24.7303C31.0307 24.5611 30.1922 24.2967 29.4017 23.9372V20.717C30.2456 21.1083 31.1909 21.4467 32.2378 21.7322C33.2953 22.0178 34.294 22.1605 35.234 22.1605C36.4731 22.1605 37.365 21.9702 37.9098 21.5895C38.4546 21.1982 38.727 20.68 38.727 20.0349C38.727 19.6542 38.6148 19.3158 38.3905 19.0197C38.1768 18.713 37.7709 18.401 37.1728 18.0838C36.5853 17.7559 35.72 17.3646 34.5771 16.9099C33.4555 16.4657 32.5101 16.0216 31.7411 15.5774C30.972 15.1332 30.3898 14.5992 29.9946 13.9753C29.5993 13.3407 29.4017 12.5317 29.4017 11.5482C29.4017 9.99365 30.0213 8.81451 31.2604 8.01079C32.5101 7.19649 34.1605 6.78934 36.2114 6.78934C37.3009 6.78934 38.3264 6.90038 39.2878 7.12246C40.2598 7.33397 41.2105 7.64594 42.1398 8.05838L40.9541 10.8661C40.153 10.5171 39.3465 10.2316 38.5347 10.0095C37.7336 9.77686 36.9164 9.66053 36.0832 9.66053C35.1112 9.66053 34.3688 9.80859 33.8561 10.1047C33.354 10.4008 33.103 10.8238 33.103 11.3737C33.103 11.7862 33.2258 12.1352 33.4715 12.4207C33.7172 12.7062 34.1391 12.9918 34.7373 13.2773C35.3462 13.5628 36.19 13.9171 37.2689 14.3401C38.3264 14.742 39.2397 15.165 40.0088 15.6091C40.7886 16.0427 41.3867 16.5768 41.8033 17.2113C42.2199 17.8458 42.4282 18.6654 42.4282 19.67Z" fill="#1D1D1D"/>
<path d="M46.8825 1.49112H53.8524C56.8754 1.49112 59.156 1.9247 60.6941 2.79188C62.2323 3.65905 63.0014 5.15546 63.0014 7.28109C63.0014 8.16942 62.8412 8.97314 62.5207 9.69226C62.211 10.4008 61.757 10.9877 61.1588 11.453C60.5606 11.9078 59.8236 12.2145 58.9477 12.3731V12.5317C59.8556 12.6904 60.6621 12.9706 61.3671 13.3725C62.0828 13.7743 62.6436 14.3507 63.0495 15.1015C63.4661 15.8524 63.6744 16.8253 63.6744 18.0203C63.6744 19.4374 63.3326 20.643 62.6489 21.6371C61.976 22.6311 61.0093 23.3873 59.7488 23.9055C58.499 24.4236 57.0143 24.6827 55.2945 24.6827H46.8825V1.49112ZM50.728 11.0565H54.4132C56.1544 11.0565 57.3614 10.7762 58.0344 10.2157C58.7073 9.65524 59.0438 8.83566 59.0438 7.75698C59.0438 6.65715 58.6432 5.864 57.8421 5.37754C57.0516 4.89107 55.7912 4.64784 54.0607 4.64784H50.728V11.0565ZM50.728 14.1339V21.4943H54.7818C56.5763 21.4943 57.8368 21.1506 58.5631 20.4632C59.2895 19.7758 59.6527 18.8452 59.6527 17.6713C59.6527 16.9522 59.4871 16.3283 59.156 15.7995C58.8355 15.2707 58.3068 14.8636 57.5697 14.578C56.8327 14.2819 55.8393 14.1339 54.5895 14.1339H50.728Z" fill="#1D1D1D"/>
<path d="M75.0826 6.78934C77.3258 6.78934 79.0188 7.28109 80.1618 8.26459C81.3154 9.2481 81.8922 10.7815 81.8922 12.8648V24.6827H79.2164L78.4954 22.1923H78.3672C77.8652 22.8268 77.3471 23.3503 76.813 23.7627C76.2789 24.1751 75.6594 24.4818 74.9544 24.6827C74.2601 24.8942 73.4109 25 72.4068 25C71.3493 25 70.4039 24.8096 69.5707 24.4289C68.7376 24.0376 68.0806 23.4454 67.5999 22.6523C67.1193 21.8591 66.8789 20.8545 66.8789 19.6383C66.8789 17.8299 67.5572 16.471 68.9138 15.5615C70.2811 14.6521 72.3427 14.1497 75.0986 14.0546L78.175 13.9435V13.0235C78.175 11.8073 77.8866 10.9401 77.3097 10.422C76.7436 9.90376 75.9425 9.64467 74.9063 9.64467C74.0197 9.64467 73.1598 9.77157 72.3267 10.0254C71.4935 10.2792 70.6817 10.5912 69.8912 10.9613L68.6735 8.32805C69.5387 7.87331 70.5214 7.50317 71.6217 7.21764C72.7326 6.93211 73.8862 6.78934 75.0826 6.78934ZM78.1589 16.2912L75.8677 16.3706C73.9877 16.434 72.6685 16.7513 71.9101 17.3223C71.1517 17.8934 70.7724 18.676 70.7724 19.67C70.7724 20.5372 71.0342 21.1717 71.5576 21.5736C72.081 21.9649 72.77 22.1605 73.6245 22.1605C74.9277 22.1605 76.0065 21.7957 76.8611 21.066C77.7263 20.3257 78.1589 19.2418 78.1589 17.8141V16.2912Z" fill="#1D1D1D"/>
<path d="M96.4088 6.78934C98.4063 6.78934 99.9605 7.30224 101.071 8.32805C102.193 9.34327 102.754 10.9772 102.754 13.2297V24.6827H98.9885V13.9277C98.9885 12.5635 98.7054 11.5429 98.1393 10.8661C97.5732 10.1787 96.6973 9.83502 95.5116 9.83502C93.7918 9.83502 92.5954 10.3585 91.9225 11.4055C91.2602 12.4524 90.9291 13.97 90.9291 15.9581V24.6827H87.1637V7.12246H90.0959L90.6246 9.5019H90.8329C91.2175 8.88854 91.6928 8.38621 92.2589 7.99492C92.8358 7.59306 93.4767 7.29167 94.1817 7.09074C94.8974 6.88981 95.6397 6.78934 96.4088 6.78934Z" fill="#1D1D1D"/>
<path d="M111.791 0V11.9289C111.791 12.4683 111.769 13.0605 111.727 13.7056C111.684 14.3401 111.641 14.9376 111.598 15.4981H111.679C111.956 15.128 112.287 14.6944 112.672 14.1973C113.067 13.7003 113.441 13.2667 113.794 12.8966L119.209 7.12246H123.535L116.437 14.6732L124 24.6827H119.578L113.906 16.9734L111.791 18.7659V24.6827H108.025V0H111.791Z" fill="#1D1D1D"/>
</svg>
